<svg xmlns="http://www.w3.org/2000/svg" viewBox="0 0 512 512">
  <rect width="512" height="512" rx="96" fill="#111827"/>
  <path fill="#16a34a" d="M158 168c0-20 16-36 36-36s36 16 36 36v78h12V118c0-20 16-36 36-36s36 16 36 36v128h12v-86c0-20 16-36 36-36s36 16 36 36v158c0 80-65 145-145 145h-14c-47 0-91-23-118-62l-54-79c-12-18-8-42 10-54s42-8 54 10l27 39V168z"/>
  <path fill="#f8fafc" d="M343 286c44 0 79 23 94 56 4 8 0 18-8 22-8 3-18 0-22-8-10-21-33-36-64-36s-54 15-64 36c-4 8-13 11-22 8-8-4-12-14-8-22 15-33 50-56 94-56z"/>
</svg>
